<svg version="1.2" xmlns="http://www.w3.org/2000/svg" viewBox="0 0 128 128" width="128" height="128"><style>.a{fill:#166ea9}</style><path  d="m18.1 94h-4v-0.7h1.3v-8.7h-3v1.6h-0.9v-2.4h9.1v2.4h-0.9v-1.6h-3v8.7h1.4zm6.7 0h-3.5v-0.7h1.1v-9.2h-1.2v-0.8h2.5v4.7q0.3-0.7 0.9-1.1 0.6-0.4 1.3-0.4 1.2 0 1.8 0.7 0.5 0.7 0.5 2.2v3.9h1.2v0.7h-3.5v-0.7h1.1v-3.5q0-1.4-0.4-1.9-0.3-0.5-1.1-0.5-0.9 0-1.4 0.7-0.4 0.6-0.4 1.8v3.4h1.1zm12.5-3.5h-5.4q0 1.5 0.6 2.2 0.5 0.8 1.6 0.8 0.8 0 1.3-0.5 0.6-0.4 0.8-1.3h1q-0.3 1.2-1.1 1.8-0.8 0.6-2.1 0.6-1.6 0-2.6-1-1-1-1-2.8 0-1.7 1-2.8 0.9-1 2.5-1 1.6 0 2.5 1 0.9 1 0.9 3zm-5.4-0.8h3.9q0-1.2-0.5-1.9-0.5-0.6-1.4-0.6-0.9 0-1.4 0.6-0.5 0.7-0.6 1.9zm19.7 4.3h-8.4v-0.8h1.3v-8.7h-1.3v-0.8h8.3v2.3h-0.9v-1.4h-4.7v3.4h3.4v-1.3h0.8v3.4h-0.8v-1.3h-3.4v4.3h4.8v-1.4h0.9zm5.2 0h-3.5v-0.7h1.1v-5.9h-1.2v-0.7h2.5v1.3q0.3-0.7 0.9-1.1 0.5-0.4 1.3-0.4 1.2 0 1.7 0.7 0.6 0.7 0.6 2.2v3.9h1.1v0.7h-3.5v-0.7h1.1v-3.5q0-1.4-0.3-1.9-0.3-0.5-1.1-0.5-0.9 0-1.4 0.7-0.4 0.6-0.4 1.8v3.4h1.1zm13.5-6.6h-1.2v6.4q0 1.6-0.9 2.4-0.9 0.9-2.5 0.9-0.7 0-1.3-0.2-0.7-0.1-1.3-0.4v-1.5h0.7q0.1 0.7 0.6 1.1 0.4 0.3 1.3 0.3 1.1 0 1.6-0.6 0.5-0.7 0.5-2v-1q-0.4 0.7-0.9 1-0.6 0.4-1.4 0.4-1.4 0-2.2-1.1-0.9-1.1-0.9-2.8 0-1.7 0.9-2.7 0.8-1.1 2.2-1.1 0.8 0 1.4 0.3 0.5 0.3 0.9 1v-1.1h2.5zm-2.5 3.3v-0.8q0-1.3-0.5-2-0.5-0.7-1.5-0.7-0.9 0-1.4 0.8-0.5 0.8-0.5 2.3 0 1.5 0.5 2.3 0.5 0.7 1.4 0.7 1 0 1.5-0.6 0.5-0.7 0.5-2zm4.2-6.3q0-0.3 0.3-0.5 0.2-0.3 0.5-0.3 0.3 0 0.6 0.3 0.2 0.2 0.2 0.5 0 0.3-0.2 0.5-0.3 0.3-0.6 0.3-0.3 0-0.5-0.3-0.3-0.2-0.3-0.5zm1.6 2.3v6.5h1.2v0.7h-3.6v-0.7h1.2v-5.8h-1.2v-0.7zm5.6 7.2h-3.5v-0.7h1.1v-5.8h-1.2v-0.7h2.5v1.3q0.3-0.8 0.9-1.2 0.5-0.3 1.3-0.3 1.2 0 1.7 0.7 0.6 0.6 0.6 2.1v3.9h1.1v0.7h-3.5v-0.7h1.1v-3.5q0-1.3-0.3-1.8-0.3-0.5-1.2-0.5-0.8 0-1.3 0.6-0.4 0.7-0.4 1.9v3.3h1.1zm12.5-3.5h-5.4v0.1q0 1.4 0.5 2.2 0.6 0.7 1.7 0.7 0.8 0 1.3-0.4 0.5-0.4 0.8-1.3h1q-0.3 1.2-1.1 1.8-0.8 0.6-2.2 0.6-1.6 0-2.5-1-1-1.1-1-2.8 0-1.8 1-2.8 0.9-1.1 2.4-1.1 1.7 0 2.6 1.1 0.9 1 0.9 2.9zm-5.4-0.7h3.9q0-1.3-0.5-1.9-0.5-0.7-1.5-0.7-0.8 0-1.3 0.7-0.5 0.6-0.6 1.9zm13.7 0.7h-5.4v0.1q0 1.4 0.5 2.2 0.6 0.7 1.6 0.7 0.9 0 1.4-0.4 0.5-0.4 0.7-1.3h1.1q-0.3 1.2-1.2 1.8-0.8 0.6-2.1 0.6-1.6 0-2.5-1-1-1.1-1-2.8 0-1.8 0.9-2.8 1-1.1 2.5-1.1 1.7 0 2.6 1.1 0.8 1 0.9 2.9zm-5.4-0.7h3.9q0-1.3-0.5-1.9-0.5-0.7-1.5-0.7-0.8 0-1.3 0.7-0.5 0.6-0.6 1.9zm12.8-3.1v1.8h-0.8q0-0.5-0.3-0.8-0.2-0.2-0.7-0.2-1 0-1.5 0.6-0.5 0.7-0.5 1.9v3.3h1.5v0.7h-3.8v-0.7h1.1v-5.8h-1.2v-0.8h2.4v1.3q0.4-0.7 1-1.1 0.6-0.4 1.4-0.4 0.3 0 0.7 0.1 0.3 0 0.7 0.1zm0.8 6.9v-1.7h0.7q0 0.8 0.5 1.2 0.5 0.4 1.4 0.4 0.9 0 1.3-0.3 0.5-0.3 0.5-0.9 0-0.5-0.4-0.8-0.3-0.3-1.3-0.6l-1-0.3q-0.9-0.3-1.3-0.8-0.4-0.4-0.4-1.1 0-1 0.7-1.6 0.7-0.6 2-0.6 0.6 0 1.2 0.2 0.7 0.1 1.3 0.4v1.6h-0.7q0-0.7-0.5-1.1-0.4-0.4-1.2-0.4-0.8 0-1.2 0.3-0.4 0.3-0.4 0.8 0 0.5 0.3 0.8 0.3 0.2 1.2 0.5l1 0.3q1 0.4 1.5 0.8 0.4 0.5 0.4 1.3 0 1-0.8 1.6-0.7 0.6-2.1 0.6-0.7 0-1.4-0.2-0.7-0.1-1.3-0.4zm-67.1 7.9v4.3h1.8q1 0 1.5-0.5 0.6-0.6 0.6-1.6 0-1.1-0.6-1.6-0.5-0.6-1.5-0.6zm1.6 9.5h-4.3v-0.7h1.3v-8.8h-1.3v-0.7h4.8q1.6 0 2.5 0.8 0.8 0.7 0.8 2.1 0 1.3-0.8 2.1-0.9 0.7-2.5 0.7h-2.1v3.8h1.6zm11-7.3v1.8h-0.7q0-0.5-0.3-0.8-0.3-0.3-0.8-0.3-0.9 0-1.4 0.7-0.5 0.6-0.5 1.8v3.4h1.5v0.7h-3.9v-0.7h1.2v-5.9h-1.2v-0.7h2.4v1.3q0.4-0.8 1-1.1 0.5-0.4 1.4-0.4 0.3 0 0.6 0.1 0.4 0 0.7 0.1zm4.3 6.8q1 0 1.5-0.8 0.5-0.8 0.5-2.4 0-1.5-0.5-2.3-0.5-0.8-1.5-0.8-1.1 0-1.6 0.8-0.5 0.8-0.5 2.3 0 1.6 0.5 2.4 0.5 0.8 1.6 0.8zm0 0.7q-1.6 0-2.6-1.1-1-1-1-2.8 0-1.7 1-2.7 1-1.1 2.6-1.1 1.5 0 2.5 1.1 1 1 1 2.7 0 1.8-1 2.8-1 1.1-2.5 1.1zm5.6-9.7q0-0.4 0.2-0.6 0.2-0.2 0.5-0.2 0.4 0 0.6 0.2 0.2 0.2 0.2 0.6 0 0.3-0.2 0.5-0.2 0.2-0.6 0.2-0.3 0-0.5-0.2-0.2-0.2-0.2-0.5zm0.3 10.2v-7.3h-1.2v-0.7h2.4v8q0 1.1-0.6 1.8-0.7 0.6-1.9 0.6-0.5 0-0.9-0.1-0.5-0.1-0.9-0.4v-1.5h0.7q0 0.7 0.3 1 0.3 0.3 0.9 0.3 0.6 0 0.9-0.4 0.3-0.4 0.3-1.3zm10.2-4.2h-5.4q0 1.5 0.5 2.3 0.6 0.7 1.7 0.7 0.8 0 1.3-0.4 0.5-0.5 0.8-1.3h1q-0.3 1.2-1.1 1.8-0.8 0.6-2.2 0.6-1.6 0-2.5-1.1-1-1-1-2.8 0-1.7 1-2.7 0.9-1.1 2.5-1.1 1.6 0 2.5 1 0.9 1 0.9 3zm-5.4-0.7h3.9q0-1.3-0.5-2-0.5-0.6-1.4-0.6-0.9 0-1.4 0.6-0.5 0.7-0.6 2zm12.3 2h1q-0.3 1.2-1 1.8-0.8 0.6-2 0.6-1.6 0-2.5-1.1-1-1-1-2.8 0-1.7 1-2.7 0.9-1.1 2.5-1.1 0.7 0 1.4 0.2 0.7 0.1 1.4 0.5v1.8h-0.8q-0.1-0.9-0.6-1.4-0.5-0.4-1.4-0.4-1 0-1.5 0.8-0.5 0.8-0.5 2.3 0 1.6 0.5 2.4 0.5 0.8 1.5 0.8 0.8 0 1.3-0.4 0.5-0.5 0.7-1.3zm3.1 0.3v-4.7h-1.1v-0.7h1.1v-2.2h1.3v2.2h2.4v0.7h-2.4v4.7q0 0.9 0.2 1.1 0.2 0.3 0.6 0.3 0.5 0 0.8-0.3 0.2-0.3 0.2-0.9h1q-0.1 1-0.6 1.4-0.5 0.5-1.5 0.5-1.1 0-1.5-0.5-0.5-0.5-0.5-1.6z"/><path class="a" d="m66.5 38.6q-7.2 2.2-13.5 6.8-6.3 4.5-8.9 8.6-3 4.1-3 7 0 2.2 1.7 2.7 3.7 0.8 11.5-4.8 3.2-2.3 7.1-6.4 3.9-4.1 6.6-8 8.5-1.1 8.5 7.5 0 5.9-5.9 15.1-5.8 9.2-15.9 16.5-10.2 7.4-15.7 7.6-5.5 0.3-7 1.4-2.8 2-2.8 4.3 0 1.9 3.2 2.2 3.2 0.3 9.3-2.1 6-2.2 12.4-6.9 14-10.2 22.3-22.6 8.1-12.5 8.1-20.5 0-11.6-11.7-9.9 5.5-8.8 5.5-16.3 0-7.4-6.7-6.9-6.7 0.4-15.2 6.6-8.5 6.2-14.9 13.6-6.4 7.3-6.4 10.6 0 2.1 2 1.4 0.6-0.4 1.8-1.2 1.1-0.8 3.4-3.8 6.5-9 13.1-13.8 6.5-4.7 10.8-5.1 4.7-0.9 4.7 4.6 0 5.4-4.4 11.8zm-5 7.1l1.1-0.3q-3.5 4.8-8.8 8.6-5.3 3.9-5.3 1.7 0-1.8 4.9-5.4 4.9-3.5 8.1-4.6z"/><path  d="m14.9 24l-0.1-7.4 32.1 1.4 0.1 7.5-13.2-0.6 0.3 57.7-5.8-0.2-0.2-57.8zm86 3.7l-6.6-0.3 0.1 24.5 6.6 0.2q3.9 0.2 6.1-2.9 2.2-3.1 2.2-9 0-5.8-2.2-9-2.2-3.4-6.2-3.5zm-12 57.4l-0.3-65.2 12.3 0.5q7 0.3 10.7 5.5 3.6 5 3.7 14.6 0 9.7-3.6 14.4-3.6 4.8-10.7 4.5l-6.6-0.3 0.1 26.2z"/></svg>